# xmcd CD database file
# Generated: lun dic 30 15:42:18 2002 by KSCD
# 
# Track frame offsets:
#       150
#       16432
#       33324
#       48168
#       65513
#       81772
#       99007
#       113721
#       128678
#       144613
#       159855
#       173212
#       187944
#
# Disc length: 2699 seconds
#
# Revision: 3
# Processed by: cddbd v1.4PL0 Copyright (c) Steve Scherf et al.
# Submitted via: Kscd 1.3.3
#
DISCID=980a890d
DTITLE=Paolo Conte: 900 - Paolo Conte: 900
DYEAR=1900
DGENRE=
TTITLE0=Novecento
TTITLE1=Il Treno Va
TTITLE2=Una Di Queste Notti
TTITLE3=Pesce Veloce Del Baltico
TTITLE4=La Donna Della Tua Vita
TTITLE5=Per Quel Che Vale
TTITLE6=Inno In Re Bemolle
TTITLE7=Gong-oh
TTITLE8=I Giardini Pensili Hanno Fatto Il Loro Tempo
TTITLE9=Schivia Del Politeama
TTITLE10=Chiamami Adesso
TTITLE11=Brillantina Bengalese
TTITLE12=Do Do
EXTD=
EXTT0=
EXTT1=
EXTT2=
EXTT3=
EXTT4=
EXTT5=
EXTT6=
EXTT7=
EXTT8=
EXTT9=
EXTT10=
EXTT11=
EXTT12=
PLAYORDER=
